<mxfile host="app.diagrams.net" agent="Mozilla/5.0 (Windows NT 10.0; Win64; x64) AppleWebKit/537.36 (KHTML, like Gecko) Chrome/136.0.0.0 Safari/537.36 Edg/136.0.0.0" version="27.0.8">
  <diagram name="Pagina-1" id="yYiLR-hzoJv7Sfnbx2IH">
    <mxGraphModel dx="1523" dy="1787" grid="1" gridSize="10" guides="1" tooltips="1" connect="1" arrows="1" fold="1" page="1" pageScale="1" pageWidth="827" pageHeight="1169" math="0" shadow="0">
      <root>
        <mxCell id="0" />
        <mxCell id="1" parent="0" />
        <mxCell id="SbDSmEXnw8iNwZFa8Iro-3" value="&lt;span style=&quot;color: rgba(0, 0, 0, 0); font-family: monospace; font-size: 0px; text-align: start; text-wrap-mode: nowrap;&quot;&gt;%3CmxGraphModel%3E%3Croot%3E%3CmxCell%20id%3D%220%22%2F%3E%3CmxCell%20id%3D%221%22%20parent%3D%220%22%2F%3E%3CmxCell%20id%3D%222%22%20value%3D%22%22%20style%3D%22ellipse%3BwhiteSpace%3Dwrap%3Bhtml%3D1%3B%22%20vertex%3D%221%22%20parent%3D%221%22%3E%3CmxGeometry%20x%3D%22332%22%20y%3D%22130%22%20width%3D%22120%22%20height%3D%2230%22%20as%3D%22geometry%22%2F%3E%3C%2FmxCell%3E%3C%2Froot%3E%3C%2FmxGraphModel%3E&lt;/span&gt;" style="rounded=0;whiteSpace=wrap;html=1;" vertex="1" parent="1">
          <mxGeometry x="310" y="50" width="164" height="478" as="geometry" />
        </mxCell>
        <mxCell id="SbDSmEXnw8iNwZFa8Iro-4" value="Add book" style="ellipse;whiteSpace=wrap;html=1;" vertex="1" parent="1">
          <mxGeometry x="332" y="90" width="120" height="30" as="geometry" />
        </mxCell>
        <mxCell id="SbDSmEXnw8iNwZFa8Iro-5" value="Modify book" style="ellipse;whiteSpace=wrap;html=1;" vertex="1" parent="1">
          <mxGeometry x="332" y="130" width="120" height="30" as="geometry" />
        </mxCell>
        <mxCell id="SbDSmEXnw8iNwZFa8Iro-7" value="Delete book" style="ellipse;whiteSpace=wrap;html=1;" vertex="1" parent="1">
          <mxGeometry x="332" y="170" width="120" height="30" as="geometry" />
        </mxCell>
        <mxCell id="SbDSmEXnw8iNwZFa8Iro-8" value="Books List" style="ellipse;whiteSpace=wrap;html=1;" vertex="1" parent="1">
          <mxGeometry x="332" y="210" width="120" height="30" as="geometry" />
        </mxCell>
        <mxCell id="SbDSmEXnw8iNwZFa8Iro-9" value="Modify Author" style="ellipse;whiteSpace=wrap;html=1;" vertex="1" parent="1">
          <mxGeometry x="332" y="370" width="120" height="30" as="geometry" />
        </mxCell>
        <mxCell id="SbDSmEXnw8iNwZFa8Iro-10" value="Add Author" style="ellipse;whiteSpace=wrap;html=1;" vertex="1" parent="1">
          <mxGeometry x="332" y="330" width="120" height="30" as="geometry" />
        </mxCell>
        <mxCell id="SbDSmEXnw8iNwZFa8Iro-11" value="Delete Author" style="ellipse;whiteSpace=wrap;html=1;" vertex="1" parent="1">
          <mxGeometry x="332" y="410" width="120" height="30" as="geometry" />
        </mxCell>
        <mxCell id="SbDSmEXnw8iNwZFa8Iro-12" value="Author List" style="ellipse;whiteSpace=wrap;html=1;" vertex="1" parent="1">
          <mxGeometry x="332" y="450" width="120" height="30" as="geometry" />
        </mxCell>
        <mxCell id="SbDSmEXnw8iNwZFa8Iro-14" value="" style="edgeStyle=orthogonalEdgeStyle;rounded=0;orthogonalLoop=1;jettySize=auto;html=1;" edge="1" parent="1" source="SbDSmEXnw8iNwZFa8Iro-13" target="SbDSmEXnw8iNwZFa8Iro-5">
          <mxGeometry relative="1" as="geometry">
            <Array as="points">
              <mxPoint x="65" y="140" />
            </Array>
          </mxGeometry>
        </mxCell>
        <mxCell id="SbDSmEXnw8iNwZFa8Iro-17" style="edgeStyle=orthogonalEdgeStyle;rounded=0;orthogonalLoop=1;jettySize=auto;html=1;entryX=0;entryY=0.5;entryDx=0;entryDy=0;" edge="1" parent="1" source="SbDSmEXnw8iNwZFa8Iro-13" target="SbDSmEXnw8iNwZFa8Iro-8">
          <mxGeometry relative="1" as="geometry">
            <Array as="points">
              <mxPoint x="180" y="225" />
              <mxPoint x="180" y="225" />
            </Array>
          </mxGeometry>
        </mxCell>
        <mxCell id="SbDSmEXnw8iNwZFa8Iro-19" style="edgeStyle=orthogonalEdgeStyle;rounded=0;orthogonalLoop=1;jettySize=auto;html=1;entryX=0;entryY=0.5;entryDx=0;entryDy=0;" edge="1" parent="1" source="SbDSmEXnw8iNwZFa8Iro-13" target="SbDSmEXnw8iNwZFa8Iro-7">
          <mxGeometry relative="1" as="geometry">
            <Array as="points">
              <mxPoint x="75" y="185" />
            </Array>
          </mxGeometry>
        </mxCell>
        <mxCell id="SbDSmEXnw8iNwZFa8Iro-22" style="edgeStyle=orthogonalEdgeStyle;rounded=0;orthogonalLoop=1;jettySize=auto;html=1;entryX=0;entryY=0.5;entryDx=0;entryDy=0;" edge="1" parent="1" source="SbDSmEXnw8iNwZFa8Iro-13" target="SbDSmEXnw8iNwZFa8Iro-11">
          <mxGeometry relative="1" as="geometry" />
        </mxCell>
        <mxCell id="SbDSmEXnw8iNwZFa8Iro-23" style="edgeStyle=orthogonalEdgeStyle;rounded=0;orthogonalLoop=1;jettySize=auto;html=1;entryX=0;entryY=0.5;entryDx=0;entryDy=0;" edge="1" parent="1" source="SbDSmEXnw8iNwZFa8Iro-13" target="SbDSmEXnw8iNwZFa8Iro-9">
          <mxGeometry relative="1" as="geometry" />
        </mxCell>
        <mxCell id="SbDSmEXnw8iNwZFa8Iro-24" style="edgeStyle=orthogonalEdgeStyle;rounded=0;orthogonalLoop=1;jettySize=auto;html=1;entryX=0;entryY=0.5;entryDx=0;entryDy=0;" edge="1" parent="1" source="SbDSmEXnw8iNwZFa8Iro-13" target="SbDSmEXnw8iNwZFa8Iro-10">
          <mxGeometry relative="1" as="geometry" />
        </mxCell>
        <mxCell id="SbDSmEXnw8iNwZFa8Iro-13" value="Client" style="shape=umlActor;verticalLabelPosition=bottom;verticalAlign=top;html=1;outlineConnect=0;" vertex="1" parent="1">
          <mxGeometry x="60" y="259" width="30" height="60" as="geometry" />
        </mxCell>
        <mxCell id="SbDSmEXnw8iNwZFa8Iro-15" style="edgeStyle=orthogonalEdgeStyle;rounded=0;orthogonalLoop=1;jettySize=auto;html=1;entryX=0.067;entryY=0.733;entryDx=0;entryDy=0;entryPerimeter=0;" edge="1" parent="1" source="SbDSmEXnw8iNwZFa8Iro-13" target="SbDSmEXnw8iNwZFa8Iro-4">
          <mxGeometry relative="1" as="geometry">
            <Array as="points">
              <mxPoint x="65" y="105" />
              <mxPoint x="340" y="105" />
            </Array>
          </mxGeometry>
        </mxCell>
        <mxCell id="SbDSmEXnw8iNwZFa8Iro-21" style="edgeStyle=orthogonalEdgeStyle;rounded=0;orthogonalLoop=1;jettySize=auto;html=1;entryX=0.067;entryY=1;entryDx=0;entryDy=0;entryPerimeter=0;" edge="1" parent="1" source="SbDSmEXnw8iNwZFa8Iro-13" target="SbDSmEXnw8iNwZFa8Iro-12">
          <mxGeometry relative="1" as="geometry" />
        </mxCell>
        <mxCell id="SbDSmEXnw8iNwZFa8Iro-26" value="&lt;p style=&quot;margin:0px;margin-top:4px;text-align:center;&quot;&gt;&lt;b&gt;Book&lt;/b&gt;&lt;/p&gt;&lt;hr size=&quot;1&quot; style=&quot;border-style:solid;&quot;&gt;&lt;p style=&quot;margin:0px;margin-left:4px;&quot;&gt;- id: int&lt;/p&gt;&lt;p style=&quot;margin:0px;margin-left:4px;&quot;&gt;- title: String&lt;/p&gt;&lt;p style=&quot;margin:0px;margin-left:4px;&quot;&gt;- releaseYear: int&lt;/p&gt;&lt;p style=&quot;margin:0px;margin-left:4px;&quot;&gt;- description: Stirng&lt;/p&gt;&lt;hr size=&quot;1&quot; style=&quot;border-style:solid;&quot;&gt;&lt;p style=&quot;margin:0px;margin-left:4px;&quot;&gt;+ method(): Type&lt;/p&gt;&lt;p style=&quot;margin:0px;margin-left:4px;&quot;&gt;&lt;br&gt;&lt;/p&gt;&lt;p style=&quot;margin:0px;margin-left:4px;&quot;&gt;&lt;br&gt;&lt;/p&gt;" style="verticalAlign=top;align=left;overflow=fill;html=1;whiteSpace=wrap;" vertex="1" parent="1">
          <mxGeometry x="110" y="1340" width="160" height="180" as="geometry" />
        </mxCell>
        <mxCell id="SbDSmEXnw8iNwZFa8Iro-27" value="book" style="rounded=1;arcSize=10;whiteSpace=wrap;html=1;align=center;" vertex="1" parent="1">
          <mxGeometry x="474" y="-980" width="100" height="40" as="geometry" />
        </mxCell>
        <mxCell id="SbDSmEXnw8iNwZFa8Iro-28" value="author" style="rounded=1;arcSize=10;whiteSpace=wrap;html=1;align=center;" vertex="1" parent="1">
          <mxGeometry x="110" y="-980" width="100" height="40" as="geometry" />
        </mxCell>
        <mxCell id="SbDSmEXnw8iNwZFa8Iro-29" value="" style="edgeStyle=entityRelationEdgeStyle;fontSize=12;html=1;endArrow=ERoneToMany;startArrow=ERzeroToMany;rounded=0;exitX=1;exitY=0.5;exitDx=0;exitDy=0;entryX=0;entryY=0.5;entryDx=0;entryDy=0;" edge="1" parent="1" source="SbDSmEXnw8iNwZFa8Iro-28" target="SbDSmEXnw8iNwZFa8Iro-27">
          <mxGeometry width="100" height="100" relative="1" as="geometry">
            <mxPoint x="340" y="-240" as="sourcePoint" />
            <mxPoint x="440" y="-340" as="targetPoint" />
          </mxGeometry>
        </mxCell>
        <mxCell id="SbDSmEXnw8iNwZFa8Iro-30" value="&lt;b&gt;&lt;font style=&quot;font-size: 18px;&quot;&gt;BookShelf Database&lt;/font&gt;&lt;/b&gt;" style="text;html=1;align=center;verticalAlign=middle;resizable=0;points=[];autosize=1;strokeColor=none;fillColor=none;" vertex="1" parent="1">
          <mxGeometry x="250" y="-1107" width="200" height="40" as="geometry" />
        </mxCell>
        <mxCell id="SbDSmEXnw8iNwZFa8Iro-31" value="&lt;b&gt;&lt;font style=&quot;font-size: 14px;&quot;&gt;Entities:&lt;/font&gt;&lt;/b&gt;" style="text;html=1;align=center;verticalAlign=middle;resizable=0;points=[];autosize=1;strokeColor=none;fillColor=none;" vertex="1" parent="1">
          <mxGeometry x="70" y="-1042" width="80" height="30" as="geometry" />
        </mxCell>
        <mxCell id="SbDSmEXnw8iNwZFa8Iro-33" value="&lt;b&gt;&lt;font style=&quot;font-size: 14px;&quot;&gt;Tables:&lt;/font&gt;&lt;/b&gt;" style="text;html=1;align=center;verticalAlign=middle;resizable=0;points=[];autosize=1;strokeColor=none;fillColor=none;" vertex="1" parent="1">
          <mxGeometry x="70" y="-880" width="70" height="30" as="geometry" />
        </mxCell>
        <mxCell id="SbDSmEXnw8iNwZFa8Iro-47" value="&lt;b&gt;book&lt;/b&gt;" style="swimlane;childLayout=stackLayout;horizontal=1;startSize=50;horizontalStack=0;rounded=1;fontSize=14;fontStyle=0;strokeWidth=2;resizeParent=0;resizeLast=1;shadow=0;dashed=0;align=center;arcSize=4;whiteSpace=wrap;html=1;" vertex="1" parent="1">
          <mxGeometry x="270" y="-810" width="190" height="130" as="geometry" />
        </mxCell>
        <mxCell id="SbDSmEXnw8iNwZFa8Iro-48" value="book_&lt;b&gt;id&lt;/b&gt;: int unique not null&lt;div&gt;&lt;div&gt;title: varchar(50)&lt;/div&gt;&lt;div&gt;&lt;span style=&quot;background-color: transparent; color: light-dark(rgb(0, 0, 0), rgb(255, 255, 255));&quot;&gt;release_year: int&lt;/span&gt;&lt;/div&gt;&lt;div&gt;&lt;span style=&quot;background-color: transparent; color: light-dark(rgb(0, 0, 0), rgb(255, 255, 255));&quot;&gt;description: text&lt;/span&gt;&lt;/div&gt;&lt;/div&gt;&lt;div&gt;&lt;br&gt;&lt;/div&gt;" style="align=left;strokeColor=none;fillColor=none;spacingLeft=4;spacingRight=4;fontSize=12;verticalAlign=top;resizable=0;rotatable=0;part=1;html=1;whiteSpace=wrap;" vertex="1" parent="SbDSmEXnw8iNwZFa8Iro-47">
          <mxGeometry y="50" width="190" height="80" as="geometry" />
        </mxCell>
        <mxCell id="SbDSmEXnw8iNwZFa8Iro-49" value="&lt;b&gt;author&lt;/b&gt;" style="swimlane;childLayout=stackLayout;horizontal=1;startSize=50;horizontalStack=0;rounded=1;fontSize=14;fontStyle=0;strokeWidth=2;resizeParent=0;resizeLast=1;shadow=0;dashed=0;align=center;arcSize=4;whiteSpace=wrap;html=1;" vertex="1" parent="1">
          <mxGeometry x="260" y="-400" width="170" height="120" as="geometry" />
        </mxCell>
        <mxCell id="SbDSmEXnw8iNwZFa8Iro-50" value="author_&lt;b&gt;id&lt;/b&gt;: int unique not null&lt;div&gt;name: varchar(50)&lt;/div&gt;&lt;div&gt;nationality: varchar(50)&lt;/div&gt;&lt;div&gt;&lt;br&gt;&lt;/div&gt;" style="align=left;strokeColor=none;fillColor=none;spacingLeft=4;spacingRight=4;fontSize=12;verticalAlign=top;resizable=0;rotatable=0;part=1;html=1;whiteSpace=wrap;" vertex="1" parent="SbDSmEXnw8iNwZFa8Iro-49">
          <mxGeometry y="50" width="170" height="70" as="geometry" />
        </mxCell>
        <mxCell id="SbDSmEXnw8iNwZFa8Iro-51" value="&lt;b&gt;book_author&lt;/b&gt;" style="swimlane;childLayout=stackLayout;horizontal=1;startSize=50;horizontalStack=0;rounded=1;fontSize=14;fontStyle=0;strokeWidth=2;resizeParent=0;resizeLast=1;shadow=0;dashed=0;align=center;arcSize=4;whiteSpace=wrap;html=1;" vertex="1" parent="1">
          <mxGeometry x="20" y="-590" width="220" height="114" as="geometry" />
        </mxCell>
        <mxCell id="SbDSmEXnw8iNwZFa8Iro-52" value="book_author_&lt;b&gt;id&lt;/b&gt;: int unique not null&lt;div&gt;book_id:int&amp;nbsp;&lt;/div&gt;&lt;div&gt;author_id: int&lt;/div&gt;" style="align=left;strokeColor=none;fillColor=none;spacingLeft=4;spacingRight=4;fontSize=12;verticalAlign=top;resizable=0;rotatable=0;part=1;html=1;whiteSpace=wrap;" vertex="1" parent="SbDSmEXnw8iNwZFa8Iro-51">
          <mxGeometry y="50" width="220" height="64" as="geometry" />
        </mxCell>
        <mxCell id="SbDSmEXnw8iNwZFa8Iro-60" value="" style="edgeStyle=entityRelationEdgeStyle;fontSize=12;html=1;endArrow=ERoneToMany;startArrow=ERoneToMany;rounded=0;entryX=-0.005;entryY=0.16;entryDx=0;entryDy=0;entryPerimeter=0;exitX=0;exitY=0.406;exitDx=0;exitDy=0;exitPerimeter=0;" edge="1" parent="1" source="SbDSmEXnw8iNwZFa8Iro-52" target="SbDSmEXnw8iNwZFa8Iro-48">
          <mxGeometry width="100" height="100" relative="1" as="geometry">
            <mxPoint x="10" y="-680" as="sourcePoint" />
            <mxPoint x="110" y="-780" as="targetPoint" />
          </mxGeometry>
        </mxCell>
        <mxCell id="SbDSmEXnw8iNwZFa8Iro-61" value="" style="edgeStyle=entityRelationEdgeStyle;fontSize=12;html=1;endArrow=ERoneToMany;startArrow=ERoneToMany;rounded=0;exitX=-0.014;exitY=0.641;exitDx=0;exitDy=0;entryX=0;entryY=0.1;entryDx=0;entryDy=0;entryPerimeter=0;exitPerimeter=0;" edge="1" parent="1" source="SbDSmEXnw8iNwZFa8Iro-52" target="SbDSmEXnw8iNwZFa8Iro-50">
          <mxGeometry width="100" height="100" relative="1" as="geometry">
            <mxPoint x="410" y="-700" as="sourcePoint" />
            <mxPoint x="510" y="-800" as="targetPoint" />
          </mxGeometry>
        </mxCell>
      </root>
    </mxGraphModel>
  </diagram>
</mxfile>
